<mxfile host="app.diagrams.net" modified="2023-01-27T18:21:11.143Z" agent="5.0 (Macintosh)" etag="GMvtAptr66yzR11nt4P-" version="20.8.13" type="github">
  <diagram name="Page-1" id="rFtV505i_ZyNvJdVqTbw">
    <mxGraphModel dx="1194" dy="663" grid="1" gridSize="10" guides="1" tooltips="1" connect="1" arrows="1" fold="1" page="1" pageScale="1" pageWidth="850" pageHeight="1100" math="0" shadow="0">
      <root>
        <mxCell id="0" />
        <mxCell id="1" parent="0" />
        <mxCell id="puOu2QI42HzO3RkiuAFU-1" value="GET All Questions" style="rounded=0;whiteSpace=wrap;html=1;" vertex="1" parent="1">
          <mxGeometry x="60" y="70" width="120" height="60" as="geometry" />
        </mxCell>
        <mxCell id="puOu2QI42HzO3RkiuAFU-5" style="edgeStyle=orthogonalEdgeStyle;rounded=0;orthogonalLoop=1;jettySize=auto;html=1;" edge="1" parent="1" source="puOu2QI42HzO3RkiuAFU-2" target="puOu2QI42HzO3RkiuAFU-3">
          <mxGeometry relative="1" as="geometry" />
        </mxCell>
        <mxCell id="puOu2QI42HzO3RkiuAFU-2" value="POST Question" style="rounded=0;whiteSpace=wrap;html=1;" vertex="1" parent="1">
          <mxGeometry x="590" y="70" width="120" height="60" as="geometry" />
        </mxCell>
        <mxCell id="puOu2QI42HzO3RkiuAFU-12" style="edgeStyle=orthogonalEdgeStyle;rounded=0;orthogonalLoop=1;jettySize=auto;html=1;" edge="1" parent="1" source="puOu2QI42HzO3RkiuAFU-3">
          <mxGeometry relative="1" as="geometry">
            <mxPoint x="440" y="420" as="targetPoint" />
          </mxGeometry>
        </mxCell>
        <mxCell id="puOu2QI42HzO3RkiuAFU-3" value="PG DB" style="shape=cylinder3;whiteSpace=wrap;html=1;boundedLbl=1;backgroundOutline=1;size=15;" vertex="1" parent="1">
          <mxGeometry x="620" y="380" width="60" height="80" as="geometry" />
        </mxCell>
        <mxCell id="puOu2QI42HzO3RkiuAFU-4" value="" style="sketch=0;aspect=fixed;html=1;points=[];align=center;image;fontSize=12;image=img/lib/mscae/Cache_Redis_Product.svg;" vertex="1" parent="1">
          <mxGeometry x="375" y="399" width="50" height="42" as="geometry" />
        </mxCell>
        <mxCell id="puOu2QI42HzO3RkiuAFU-7" value="List" style="swimlane;fontStyle=0;childLayout=stackLayout;horizontal=1;startSize=30;horizontalStack=0;resizeParent=1;resizeParentMax=0;resizeLast=0;collapsible=1;marginBottom=0;whiteSpace=wrap;html=1;" vertex="1" parent="1">
          <mxGeometry x="330" y="520" width="140" height="120" as="geometry" />
        </mxCell>
        <mxCell id="puOu2QI42HzO3RkiuAFU-8" value="devx:ie:q:1" style="text;strokeColor=none;fillColor=none;align=left;verticalAlign=middle;spacingLeft=4;spacingRight=4;overflow=hidden;points=[[0,0.5],[1,0.5]];portConstraint=eastwest;rotatable=0;whiteSpace=wrap;html=1;" vertex="1" parent="puOu2QI42HzO3RkiuAFU-7">
          <mxGeometry y="30" width="140" height="30" as="geometry" />
        </mxCell>
        <mxCell id="puOu2QI42HzO3RkiuAFU-9" value="devx:2" style="text;strokeColor=none;fillColor=none;align=left;verticalAlign=middle;spacingLeft=4;spacingRight=4;overflow=hidden;points=[[0,0.5],[1,0.5]];portConstraint=eastwest;rotatable=0;whiteSpace=wrap;html=1;" vertex="1" parent="puOu2QI42HzO3RkiuAFU-7">
          <mxGeometry y="60" width="140" height="30" as="geometry" />
        </mxCell>
        <mxCell id="puOu2QI42HzO3RkiuAFU-10" value="devx:3" style="text;strokeColor=none;fillColor=none;align=left;verticalAlign=middle;spacingLeft=4;spacingRight=4;overflow=hidden;points=[[0,0.5],[1,0.5]];portConstraint=eastwest;rotatable=0;whiteSpace=wrap;html=1;" vertex="1" parent="puOu2QI42HzO3RkiuAFU-7">
          <mxGeometry y="90" width="140" height="30" as="geometry" />
        </mxCell>
        <mxCell id="puOu2QI42HzO3RkiuAFU-11" value="" style="shape=image;html=1;verticalAlign=top;verticalLabelPosition=bottom;labelBackgroundColor=#ffffff;imageAspect=0;aspect=fixed;image=https://cdn4.iconfinder.com/data/icons/evil-icons-user-interface/64/clock-128.png" vertex="1" parent="1">
          <mxGeometry x="490" y="260" width="68" height="68" as="geometry" />
        </mxCell>
        <mxCell id="puOu2QI42HzO3RkiuAFU-13" value="&lt;div&gt;Insert&lt;/div&gt;&lt;div&gt;Update&lt;/div&gt;&lt;div&gt;Delete&lt;br&gt;&lt;/div&gt;" style="text;html=1;align=center;verticalAlign=middle;resizable=0;points=[];autosize=1;strokeColor=none;fillColor=none;" vertex="1" parent="1">
          <mxGeometry x="494" y="360" width="60" height="60" as="geometry" />
        </mxCell>
        <mxCell id="puOu2QI42HzO3RkiuAFU-14" value="" style="curved=1;endArrow=classic;html=1;rounded=0;" edge="1" parent="1" source="puOu2QI42HzO3RkiuAFU-3">
          <mxGeometry width="50" height="50" relative="1" as="geometry">
            <mxPoint x="400" y="370" as="sourcePoint" />
            <mxPoint x="400" y="390" as="targetPoint" />
            <Array as="points">
              <mxPoint x="550" y="310" />
              <mxPoint x="450" y="370" />
              <mxPoint x="400" y="320" />
            </Array>
          </mxGeometry>
        </mxCell>
      </root>
    </mxGraphModel>
  </diagram>
</mxfile>
